<svg width="22" height="17" viewBox="0 0 22 17" fill="none" xmlns="http://www.w3.org/2000/svg">
<path fill-rule="evenodd" clip-rule="evenodd" d="M21.2138 2.55955C20.4408 2.88155 19.6098 3.09655 18.7388 3.19455C19.6288 2.69455 20.3118 1.90255 20.6338 0.960551C19.7998 1.42255 18.8778 1.75855 17.8958 1.94055C17.1108 1.15455 15.9898 0.664551 14.7508 0.664551C12.3708 0.664551 10.4398 2.47355 10.4398 4.70355C10.4398 5.02055 10.4778 5.32955 10.5518 5.62455C6.96981 5.45555 3.79381 3.84755 1.66781 1.40455C1.29681 2.00155 1.08481 2.69455 1.08481 3.43555C1.08481 4.83555 1.84581 6.07355 3.00181 6.79755C2.29581 6.77555 1.63181 6.59455 1.04981 6.29155C1.04981 6.30955 1.04981 6.32455 1.04981 6.34355C1.04981 8.30055 2.53481 9.93255 4.50681 10.3036C4.14581 10.3956 3.76381 10.4436 3.37181 10.4436C3.09381 10.4436 2.82381 10.4195 2.56081 10.3736C3.10881 11.9766 4.70081 13.1456 6.58681 13.1786C5.11181 14.2616 3.25381 14.9066 1.23381 14.9066C0.885811 14.9066 0.542811 14.8876 0.205811 14.8506C2.11281 15.9956 4.37881 16.6656 6.81281 16.6656C14.7408 16.6656 19.0758 10.5096 19.0758 5.17255C19.0758 4.99655 19.0708 4.82355 19.0628 4.64955C19.9048 4.07955 20.6358 3.36855 21.2138 2.55955Z" fill="white"/>
</svg>
