<svg width="20" height="19" viewBox="0 0 20 19" fill="none" xmlns="http://www.w3.org/2000/svg">
<path fill-rule="evenodd" clip-rule="evenodd" d="M19.9602 13.7551V9.68369V0.810059H2.93894L0.811279 3.10676V15.2167H6.13043V18.9749H8.47085L11.024 16.2606H17.407L19.9602 13.7551ZM7.40694 13.5464H4.00268C3.76864 13.5464 3.57715 13.3585 3.57715 13.1288V2.89805C3.57715 2.66838 3.76864 2.48047 4.00268 2.48047H17.6197C17.8537 2.48047 18.0452 2.66838 18.0452 2.89805V10.8321C18.0452 10.947 18.0027 11.0513 17.9229 11.1296L15.5825 13.4263C15.5027 13.5046 15.391 13.5464 15.2793 13.5464H11.3697L8.07183 15.77C8.00268 15.817 7.91757 15.8431 7.83247 15.8431C7.76332 15.8431 7.69949 15.8274 7.63566 15.7961C7.49204 15.7231 7.40694 15.5821 7.40694 15.4255V13.5464Z" fill="white"/>
<path d="M13.79 9.89262V5.7168H12.0878V9.89262H13.79ZM9.53465 9.89262V5.7168H7.83252V9.89262H9.53465Z" fill="white"/>
</svg>
